<svg width="12" height="12" viewBox="0 0 12 12" fill="none" xmlns="http://www.w3.org/2000/svg">
<path d="M6.00033 10.2C5.84119 10.2 5.68857 10.2632 5.57605 10.3757C5.46352 10.4883 5.4003 10.6409 5.4003 10.8V11.4C5.4003 11.5591 5.46352 11.7117 5.57605 11.8243C5.68857 11.9368 5.84119 12 6.00033 12C6.15947 12 6.31209 11.9368 6.42462 11.8243C6.53715 11.7117 6.60037 11.5591 6.60037 11.4V10.8C6.60037 10.6409 6.53715 10.4883 6.42462 10.3757C6.31209 10.2632 6.15947 10.2 6.00033 10.2ZM2.18172 8.97L1.7575 9.3942C1.6482 9.50736 1.58772 9.65892 1.58908 9.81624C1.59045 9.97356 1.65356 10.124 1.76481 10.2353C1.87606 10.3465 2.02655 10.4096 2.18388 10.411C2.34121 10.4124 2.49278 10.3519 2.60594 10.2426L3.03017 9.8184C3.13947 9.70524 3.19995 9.55368 3.19858 9.39636C3.19721 9.23904 3.13411 9.08855 3.02286 8.97731C2.91161 8.86606 2.76111 8.80296 2.60379 8.8016C2.44646 8.80023 2.29489 8.86071 2.18172 8.97ZM9.81894 8.97C9.71096 8.86239 9.56607 8.79992 9.41369 8.79526C9.26131 8.79061 9.11288 8.84413 8.99853 8.94495C8.88419 9.04577 8.81251 9.18633 8.79805 9.33809C8.78359 9.48984 8.82744 9.64141 8.92069 9.762L8.9705 9.8184L9.39472 10.2426C9.5027 10.3502 9.64759 10.4127 9.79997 10.4173C9.95235 10.422 10.1008 10.3685 10.2151 10.2677C10.3295 10.1668 10.4012 10.0263 10.4156 9.87452C10.4301 9.72276 10.3862 9.57119 10.293 9.4506L10.2432 9.3942L9.81894 8.97ZM6.00033 2.4C5.0455 2.4 4.12978 2.77928 3.45461 3.45442C2.77944 4.12955 2.40013 5.04522 2.40013 6C2.40013 6.95478 2.77944 7.87045 3.45461 8.54559C4.12978 9.22072 5.0455 9.6 6.00033 9.6C6.95516 9.6 7.87089 9.22072 8.54606 8.54559C9.22123 7.87045 9.60053 6.95478 9.60053 6C9.60053 5.04522 9.22123 4.12955 8.54606 3.45442C7.87089 2.77928 6.95516 2.4 6.00033 2.4ZM10.8006 5.4C10.6477 5.40017 10.5006 5.45873 10.3894 5.56371C10.2781 5.66869 10.2112 5.81217 10.2023 5.96484C10.1933 6.1175 10.243 6.26783 10.3411 6.3851C10.4393 6.50237 10.5785 6.57774 10.7304 6.5958L10.8006 6.6H11.4006C11.5536 6.59983 11.7007 6.54127 11.8119 6.43629C11.9231 6.33131 11.99 6.18783 11.999 6.03516C12.0079 5.8825 11.9583 5.73217 11.8601 5.6149C11.7619 5.49763 11.6227 5.42226 11.4708 5.4042L11.4006 5.4H10.8006ZM0.600034 5.4C0.440895 5.4 0.288274 5.46321 0.175746 5.57574C0.0632172 5.68826 0 5.84087 0 6C0 6.15913 0.0632172 6.31174 0.175746 6.42426C0.288274 6.53679 0.440895 6.6 0.600034 6.6H1.20007C1.35921 6.6 1.51183 6.53679 1.62436 6.42426C1.73688 6.31174 1.8001 6.15913 1.8001 6C1.8001 5.84087 1.73688 5.68826 1.62436 5.57574C1.51183 5.46321 1.35921 5.4 1.20007 5.4H0.600034ZM10.2432 1.7574C10.1398 1.65409 10.0024 1.59204 9.85655 1.58287C9.71073 1.5737 9.56657 1.61805 9.45112 1.7076L9.39472 1.7574L8.9705 2.1816C8.86288 2.28957 8.8004 2.43446 8.79575 2.58683C8.7911 2.7392 8.84462 2.88763 8.94544 3.00197C9.04627 3.11631 9.18684 3.18798 9.3386 3.20244C9.49036 3.2169 9.64194 3.17305 9.76254 3.0798L9.81894 3.03L10.2432 2.6058C10.3557 2.49328 10.4188 2.3407 10.4188 2.1816C10.4188 2.0225 10.3557 1.86992 10.2432 1.7574ZM1.7575 1.7574C1.64501 1.86992 1.58182 2.0225 1.58182 2.1816C1.58182 2.3407 1.64501 2.49328 1.7575 2.6058L2.18172 3.03C2.23707 3.08731 2.30328 3.13302 2.37649 3.16446C2.4497 3.19591 2.52843 3.21246 2.6081 3.21315C2.68778 3.21384 2.76679 3.19866 2.84053 3.16849C2.91427 3.13832 2.98127 3.09377 3.03761 3.03744C3.09394 2.9811 3.1385 2.91411 3.16867 2.84037C3.19884 2.76663 3.21402 2.68763 3.21333 2.60796C3.21264 2.52829 3.19608 2.44956 3.16464 2.37636C3.13319 2.30315 3.08748 2.23695 3.03017 2.1816L2.60594 1.7574C2.49342 1.64492 2.34083 1.58173 2.18172 1.58173C2.02261 1.58173 1.87002 1.64492 1.7575 1.7574ZM6.00033 0C5.84119 0 5.68857 0.0632141 5.57605 0.175736C5.46352 0.288258 5.4003 0.44087 5.4003 0.6V1.2C5.4003 1.35913 5.46352 1.51174 5.57605 1.62426C5.68857 1.73679 5.84119 1.8 6.00033 1.8C6.15947 1.8 6.31209 1.73679 6.42462 1.62426C6.53715 1.51174 6.60037 1.35913 6.60037 1.2V0.6C6.60037 0.44087 6.53715 0.288258 6.42462 0.175736C6.31209 0.0632141 6.15947 0 6.00033 0Z" fill="black" fill-opacity="0.5"/>
</svg>
