<svg width="23" height="22" viewBox="0 0 23 22" fill="none" xmlns="http://www.w3.org/2000/svg">
<path d="M5.55058 8.65008H14.045C15.4607 8.65008 16.6912 9.10748 17.7366 10.0223C18.782 10.9371 19.3043 12.0806 19.3034 13.4528C19.3025 14.825 18.7798 15.9685 17.7353 16.8833C16.6908 17.7982 15.4607 18.2556 14.045 18.2556H5.82024C5.43822 18.2556 5.11777 18.3873 4.8589 18.6508C4.60002 18.9142 4.47103 19.2399 4.47193 19.6278C4.47283 20.0156 4.60227 20.3418 4.86024 20.6062C5.11822 20.8705 5.43822 21.0018 5.82024 21H14.045C16.2247 21 18.0957 20.2796 19.658 18.8387C21.2202 17.3979 22.0009 15.6026 22 13.4528C21.9991 11.303 21.218 9.50771 19.6566 8.06689C18.0953 6.62607 16.2247 5.90566 14.045 5.90566H5.55058L8.11237 3.29845C8.35956 3.04688 8.48316 2.7267 8.48316 2.33791C8.48316 1.94911 8.35956 1.62893 8.11237 1.37736C7.86518 1.12579 7.55058 1 7.16855 1C6.78653 1 6.47193 1.12579 6.22474 1.37736L1.37081 6.31732C1.23598 6.45454 1.14025 6.6032 1.08362 6.76329C1.02699 6.92338 0.999122 7.09491 1.00002 7.27787C1.00092 7.46083 1.02879 7.63236 1.08362 7.79245C1.13845 7.95254 1.23418 8.10119 1.37081 8.23841L6.22474 13.1784C6.47193 13.4299 6.78653 13.5557 7.16855 13.5557C7.55058 13.5557 7.86518 13.4299 8.11237 13.1784C8.35956 12.9268 8.48316 12.6066 8.48316 12.2178C8.48316 11.829 8.35956 11.5089 8.11237 11.2573L5.55058 8.65008Z" fill="#595959" stroke="white" stroke-width="0.6"/>
</svg>
