<svg width="9" height="5" viewBox="0 0 9 5" fill="none" xmlns="http://www.w3.org/2000/svg">
<path d="M8.45 0.913693L4.825 4.70234C4.74167 4.78944 4.65833 4.8504 4.575 4.88524C4.49167 4.92008 4.4 4.9375 4.3 4.9375C4.2 4.9375 4.10833 4.92008 4.025 4.88524C3.94167 4.8504 3.85833 4.78944 3.775 4.70234L0.15 0.913693C0.1 0.861436 0.0626668 0.804649 0.0380001 0.743334C0.0133334 0.682019 0.000666667 0.616872 0 0.547892C0 0.408539 0.046 0.286605 0.138 0.182091C0.23 0.0775766 0.350667 0.0253196 0.5 0.0253196H8.1C8.25 0.0253196 8.371 0.0775766 8.463 0.182091C8.555 0.286605 8.60067 0.408539 8.6 0.547892C8.6 0.58273 8.55 0.704664 8.45 0.913693Z" fill="black" fill-opacity="0.3"/>
</svg>
